# Blender 4.4.3
# www.blender.org
mtllib tatami.mtl
o Cube
v 0.833653 0.040000 -1.791066
v 0.950000 -0.040000 -1.900000
v 0.833653 0.040000 1.791066
v 0.950000 -0.040000 1.900000
v -0.833653 0.040000 -1.791066
v -0.950000 -0.040000 -1.900000
v -0.833653 0.040000 1.791066
v -0.950000 -0.040000 1.900000
v 0.950000 0.040000 1.900000
v -0.950000 0.040000 1.900000
v 0.950000 0.040000 -1.900000
v -0.950000 0.040000 -1.900000
vn -0.0000 1.0000 -0.0000
vn -0.0000 -0.0000 1.0000
vn -1.0000 -0.0000 -0.0000
vn -0.0000 -1.0000 -0.0000
vn 1.0000 -0.0000 -0.0000
vn -0.0000 -0.0000 -1.0000
vt 0.501780 0.607249
vt 0.732595 0.607249
vt 0.732595 0.838064
vt 0.501780 0.838063
vt 0.449050 0.320649
vt 0.535325 0.320649
vt 0.535325 0.406923
vt 0.449050 0.406923
vt 0.449050 0.061827
vt 0.535325 0.061827
vt 0.535325 0.148101
vt 0.449050 0.148101
vt 0.156250 0.597656
vt 0.406250 0.597656
vt 0.406250 0.847656
vt 0.156250 0.847656
vt 0.449050 0.234375
vt 0.535325 0.234375
vt 0.624827 0.478688
vt 0.855642 0.478689
vt 0.865234 0.488281
vt 0.615234 0.488281
vt 0.624827 0.247874
vt 0.615234 0.238281
vt 0.855642 0.247874
vt 0.865234 0.238281
s 0
usemtl Material
f 1/1/1 5/2/1 7/3/1 3/4/1
f 4/5/2 9/6/2 10/7/2 8/8/2
f 8/9/3 10/10/3 12/11/3 6/12/3
f 6/13/4 2/14/4 4/15/4 8/16/4
f 2/17/5 11/18/5 9/6/5 4/5/5
f 6/12/6 12/11/6 11/18/6 2/17/6
f 3/19/1 7/20/1 10/21/1 9/22/1
f 1/23/1 3/19/1 9/22/1 11/24/1
f 7/20/1 5/25/1 12/26/1 10/21/1
f 5/25/1 1/23/1 11/24/1 12/26/1
